<?xml version="1.0" encoding="UTF-8"?>
<svg id="Layer_1" data-name="Layer 1" xmlns="http://www.w3.org/2000/svg" viewBox="0 0 364.64 115.92">
  <defs>
    <style>
      .cls-1 {
        fill: #fff;
      }
    </style>
  </defs>
  <g>
    <path class="cls-1" d="M30.63,115.92h0c-16.87,0-30.63-13.67-30.63-30.63V0h30.63v115.92Z"/>
    <path class="cls-1" d="M189.07,115.25c-16.87,0-30.63-13.67-30.63-30.63V0h30.63v115.25Z"/>
    <path class="cls-1" d="M207.29,115.25c-26.91,0-48.85-21.94-48.85-48.85s21.94-48.85,48.85-48.85,48.85,21.94,48.85,48.85-21.94,48.85-48.85,48.85ZM207.29,48.26c-10.04,0-18.22,8.18-18.22,18.22s8.18,18.22,18.22,18.22,18.22-8.18,18.22-18.22-8.18-18.22-18.22-18.22Z"/>
    <rect class="cls-1" x="113.81" y="19.32" width="30.63" height="95.93"/>
    <path class="cls-1" d="M95.59,115.25c-26.91,0-48.85-21.94-48.85-48.85s21.94-48.85,48.85-48.85,48.85,21.94,48.85,48.85-21.94,48.85-48.85,48.85ZM95.59,48.26c-10.04,0-18.22,8.18-18.22,18.22s8.18,18.22,18.22,18.22,18.22-8.18,18.22-18.22-8.18-18.22-18.22-18.22Z"/>
    <path class="cls-1" d="M297.56,115.25h0c-16.87,0-30.63-13.67-30.63-30.63V0h30.63v115.25Z"/>
    <path class="cls-1" d="M315.79,115.25c-26.91,0-48.85-21.94-48.85-48.85s21.94-48.85,48.85-48.85,48.85,21.94,48.85,48.85-21.94,48.85-48.85,48.85ZM315.79,48.26c-10.04,0-18.22,8.18-18.22,18.22s8.18,18.22,18.22,18.22,18.22-8.18,18.22-18.22-8.18-18.22-18.22-18.22Z"/>
  </g>
  <polygon class="cls-1" points="207.29 115.25 189.07 115.25 189.07 107.15 207.29 107.15 207.29 115.25"/>
  <polygon class="cls-1" points="315.79 115.25 297.56 115.25 297.56 107.15 315.79 107.15 315.79 115.25"/>
</svg>