<?xml version="1.0" encoding="UTF-8"?>
<svg id="Layer_1" data-name="Layer 1" xmlns="http://www.w3.org/2000/svg" viewBox="0 0 1099.07 178.54">
  <defs>
    <style>
      .cls-1 {
        fill: #fff;
      }
    </style>
  </defs>
  <g>
    <path class="cls-1" d="M280.88,124.97l-11.4,37.72h-38.39L281.05,15.51h48.28l50.96,147.18h-39.73l-12.57-37.72h-47.1M322.28,100l-10.23-31.18c-2.68-8.72-5.53-19.95-8.05-28.33h-.67c-2.18,8.72-4.86,19.95-7.21,28.33l-9.89,31.18h36.04Z"/>
    <path class="cls-1" d="M426.38,17.69c11.9-2.01,29.33-3.35,49.28-3.35,24.31,0,41.24,3.35,52.97,11.73,9.89,7.04,15.25,17.27,15.25,30.84,0,18.61-14.75,31.51-28.83,36.04v.67c11.4,4.19,17.77,13.75,21.79,27.32,5.03,16.76,9.89,36.04,13.08,41.74h-37.88c-2.35-4.19-6.54-16.09-11.23-34.36-4.69-18.61-11.57-23.3-26.99-23.64h-10.9v58h-36.71V17.69M463.09,80.72h14.58c18.44,0,29.33-8.21,29.33-21.12s-10.23-20.28-27.16-20.28c-9.05,0-14.08.5-16.76,1.17v40.23Z"/>
    <path class="cls-1" d="M594.51,15.51h36.71v65.04h.5c3.69-5.7,7.54-10.9,11.4-16.09l36.88-48.95h45.59l-54.14,62.69,56.83,84.48h-42.91l-40.23-63.53-13.91,15.42v48.11h-36.71V15.51"/>
    <path class="cls-1" d="M808.91,124.97l-11.4,37.72h-38.39l49.95-147.18h48.28l50.96,147.18h-39.73l-12.57-37.72h-47.1M850.31,100l-10.23-31.18c-2.68-8.72-5.53-19.95-8.05-28.33h-.67c-2.18,8.72-4.86,19.95-7.21,28.33l-9.89,31.18h36.04Z"/>
    <path class="cls-1" d="M954.41,17.69c13.58-2.18,31.35-3.35,49.79-3.35,31.35,0,51.63,4.53,67.22,15.25,16.93,11.4,27.66,29.67,27.66,55.99,0,28.16-11.4,47.61-26.99,59.68-17.27,12.91-43.75,18.94-75.77,18.94-19.11,0-33.02-1.17-41.91-2.18V17.69M991.29,137.55c3.18.67,8.55.67,12.91.67,33.69.17,55.82-16.43,55.82-51.46,0-31.68-19.95-46.77-51.96-46.77-8.05,0-13.58.67-16.76,1.34v96.22Z"/>
  </g>
  <g>
    <path class="cls-1" d="M56.95,0v29.6c0,54.03-10.64,92.08-31.61,113.04L0,167.99l10.5,10.55,25.35-25.35c23.89-23.89,35.99-65.45,35.99-123.59V0h-14.89"/>
    <path class="cls-1" d="M76.37,0v29.6c0,55.31-3.61,94.22-10.87,115.97l-8.45,25.35,14.16,4.7,8.45-25.35c7.72-23.2,11.65-63.76,11.65-120.67V0h-14.94"/>
    <path class="cls-1" d="M96.05,0v29.6c0,56.86,3.93,97.47,11.65,120.67l8.45,25.35,14.16-4.7-8.45-25.35c-7.22-21.69-10.87-60.7-10.87-115.97V0h-14.94"/>
    <path class="cls-1" d="M115.78,0v29.6c0,58.1,12.1,99.71,35.99,123.59l25.35,25.35,10.55-10.55-25.35-25.35c-20.96-21.01-31.61-59.01-31.61-113.04V0h-14.94"/>
  </g>
</svg>